{
    "asset" : {
        "generator" : "Khronos glTF Blender I/O v1.6.16",
        "version" : "2.0"
    },
    "scene" : 0,
    "scenes" : [
        {
            "name" : "Scene",
            "nodes" : [
                0,
                1,
                2,
                3,
                4,
                5,
                6,
                7,
                8
            ]
        }
    ],
    "nodes" : [
        {
            "name" : "Light",
            "rotation" : [
                0.16907575726509094,
                0.7558803558349609,
                -0.27217137813568115,
                0.570947527885437
            ],
            "translation" : [
                4.076245307922363,
                5.903861999511719,
                -1.0054539442062378
            ]
        },
        {
            "name" : "Camera",
            "rotation" : [
                0.483536034822464,
                0.33687159419059753,
                -0.20870360732078552,
                0.7804827094078064
            ],
            "translation" : [
                7.358891487121582,
                4.958309173583984,
                6.925790786743164
            ]
        },
        {
            "mesh" : 0,
            "name" : "\u30c9\u30ed\u30fc\u30f3\u672c\u4f53",
            "rotation" : [
                0,
                -0.9999995231628418,
                0,
                -0.0010039049666374922
            ],
            "scale" : [
                1,
                0.7647058367729187,
                1.5618221759796143
            ]
        },
        {
            "mesh" : 1,
            "name" : "\u7fbd_\u5de6",
            "rotation" : [
                -0.5,
                0.5,
                -0.5,
                0.4999999701976776
            ],
            "scale" : [
                0.0024999999441206455,
                0.03500000014901161,
                0.009999999776482582
            ],
            "translation" : [
                0.3499992787837982,
                0.019999999552965164,
                0.0007026497041806579
            ]
        },
        {
            "mesh" : 2,
            "name" : "\u7fbd_\u53f3\u4e0b",
            "rotation" : [
                0,
                0,
                -0.7071068286895752,
                0.7071068286895752
            ],
            "scale" : [
                0.0024999999441206455,
                0.03500000014901161,
                0.009999999776482582
            ],
            "translation" : [
                -0.19430696964263916,
                0.019999999552965164,
                -0.34539082646369934
            ]
        },
        {
            "mesh" : 3,
            "name" : "\u7fbd_\u5de6\u4e0b",
            "rotation" : [
                0,
                0,
                -0.7071068286895752,
                0.7071068286895752
            ],
            "scale" : [
                0.0024999999441206455,
                0.03500000014901161,
                0.009999999776482582
            ],
            "translation" : [
                0.19569218158721924,
                0.019999999552965164,
                -0.3446078598499298
            ]
        },
        {
            "mesh" : 4,
            "name" : "\u7fbd_\u53f3\u4e0a",
            "rotation" : [
                0,
                0,
                -0.7071068286895752,
                0.7071068286895752
            ],
            "scale" : [
                0.0024999999441206455,
                0.03500000014901161,
                0.009999999776482582
            ],
            "translation" : [
                -0.19569218158721924,
                0.019999999552965164,
                0.3446078598499298
            ]
        },
        {
            "mesh" : 5,
            "name" : "\u7fbd_\u5de6\u4e0a",
            "rotation" : [
                0,
                0,
                -0.7071068286895752,
                0.7071068286895752
            ],
            "scale" : [
                0.0024999999441206455,
                0.03500000014901161,
                0.009999999776482582
            ],
            "translation" : [
                0.19430696964263916,
                0.019999999552965164,
                0.34539082646369934
            ]
        },
        {
            "mesh" : 6,
            "name" : "\u7fbd_\u53f3",
            "rotation" : [
                -0.5,
                0.5,
                -0.5,
                0.4999999701976776
            ],
            "scale" : [
                0.0024999999441206455,
                0.03500000014901161,
                0.009999999776482582
            ],
            "translation" : [
                -0.3499992787837982,
                0.019999999552965164,
                -0.0007026497041806579
            ]
        }
    ],
    "animations" : [
        {
            "channels" : [
                {
                    "sampler" : 0,
                    "target" : {
                        "node" : 3,
                        "path" : "rotation"
                    }
                }
            ],
            "name" : "\u7fbd_\u5186\u9310\u30de\u30fc\u30b8.001Action.001",
            "samplers" : [
                {
                    "input" : 23,
                    "interpolation" : "LINEAR",
                    "output" : 24
                }
            ]
        },
        {
            "channels" : [
                {
                    "sampler" : 0,
                    "target" : {
                        "node" : 4,
                        "path" : "rotation"
                    }
                }
            ],
            "name" : "\u7fbd_\u5186\u9310\u30de\u30fc\u30b8.001Action.002",
            "samplers" : [
                {
                    "input" : 23,
                    "interpolation" : "LINEAR",
                    "output" : 25
                }
            ]
        },
        {
            "channels" : [
                {
                    "sampler" : 0,
                    "target" : {
                        "node" : 5,
                        "path" : "rotation"
                    }
                }
            ],
            "name" : "\u7fbd_\u5186\u9310\u30de\u30fc\u30b8.001Action.003",
            "samplers" : [
                {
                    "input" : 23,
                    "interpolation" : "LINEAR",
                    "output" : 26
                }
            ]
        },
        {
            "channels" : [
                {
                    "sampler" : 0,
                    "target" : {
                        "node" : 6,
                        "path" : "rotation"
                    }
                }
            ],
            "name" : "\u7fbd_\u5186\u9310\u30de\u30fc\u30b8.001Action.004",
            "samplers" : [
                {
                    "input" : 23,
                    "interpolation" : "LINEAR",
                    "output" : 27
                }
            ]
        },
        {
            "channels" : [
                {
                    "sampler" : 0,
                    "target" : {
                        "node" : 7,
                        "path" : "rotation"
                    }
                }
            ],
            "name" : "\u7fbd_\u5186\u9310\u30de\u30fc\u30b8.001Action.005",
            "samplers" : [
                {
                    "input" : 23,
                    "interpolation" : "LINEAR",
                    "output" : 28
                }
            ]
        },
        {
            "channels" : [
                {
                    "sampler" : 0,
                    "target" : {
                        "node" : 8,
                        "path" : "rotation"
                    }
                }
            ],
            "name" : "\u7fbd_\u5186\u9310\u30de\u30fc\u30b8.001Action.006",
            "samplers" : [
                {
                    "input" : 23,
                    "interpolation" : "LINEAR",
                    "output" : 29
                }
            ]
        }
    ],
    "materials" : [
        {
            "doubleSided" : true,
            "name" : "\u30de\u30c6\u30ea\u30a2\u30eb_\u672c\u4f53",
            "pbrMetallicRoughness" : {
                "baseColorFactor" : [
                    0.008999999612569809,
                    0.008999999612569809,
                    0.008999999612569809,
                    1
                ],
                "metallicFactor" : 0.10000000149011612,
                "roughnessFactor" : 0.4000000059604645
            }
        },
        {
            "doubleSided" : true,
            "name" : "\u30de\u30c6\u30ea\u30a2\u30eb_\u7fbd",
            "pbrMetallicRoughness" : {
                "baseColorFactor" : [
                    0.008999999612569809,
                    0.008999999612569809,
                    0.008999999612569809,
                    1
                ],
                "metallicFactor" : 0.10000000149011612,
                "roughnessFactor" : 0.4000000059604645
            }
        }
    ],
    "meshes" : [
        {
            "name" : "ICO\u7403",
            "primitives" : [
                {
                    "attributes" : {
                        "POSITION" : 0,
                        "NORMAL" : 1,
                        "TEXCOORD_0" : 2
                    },
                    "indices" : 3,
                    "material" : 0
                }
            ]
        },
        {
            "name" : "\u5186\u9310.003",
            "primitives" : [
                {
                    "attributes" : {
                        "POSITION" : 4,
                        "NORMAL" : 5,
                        "TEXCOORD_0" : 6
                    },
                    "indices" : 7,
                    "material" : 1
                }
            ]
        },
        {
            "name" : "\u5186\u9310.004",
            "primitives" : [
                {
                    "attributes" : {
                        "POSITION" : 8,
                        "NORMAL" : 9,
                        "TEXCOORD_0" : 10
                    },
                    "indices" : 7,
                    "material" : 1
                }
            ]
        },
        {
            "name" : "\u5186\u9310.005",
            "primitives" : [
                {
                    "attributes" : {
                        "POSITION" : 11,
                        "NORMAL" : 12,
                        "TEXCOORD_0" : 13
                    },
                    "indices" : 7,
                    "material" : 1
                }
            ]
        },
        {
            "name" : "\u5186\u9310.006",
            "primitives" : [
                {
                    "attributes" : {
                        "POSITION" : 14,
                        "NORMAL" : 15,
                        "TEXCOORD_0" : 16
                    },
                    "indices" : 7,
                    "material" : 1
                }
            ]
        },
        {
            "name" : "\u5186\u9310.007",
            "primitives" : [
                {
                    "attributes" : {
                        "POSITION" : 17,
                        "NORMAL" : 18,
                        "TEXCOORD_0" : 19
                    },
                    "indices" : 7,
                    "material" : 1
                }
            ]
        },
        {
            "name" : "\u5186\u9310.001",
            "primitives" : [
                {
                    "attributes" : {
                        "POSITION" : 20,
                        "NORMAL" : 21,
                        "TEXCOORD_0" : 22
                    },
                    "indices" : 7,
                    "material" : 1
                }
            ]
        }
    ],
    "accessors" : [
        {
            "bufferView" : 0,
            "componentType" : 5126,
            "count" : 35434,
            "max" : [
                0.3599998950958252,
                0.1896153837442398,
                0.22838056087493896
            ],
            "min" : [
                -0.3599998950958252,
                -0.41480374336242676,
                -0.22838056087493896
            ],
            "type" : "VEC3"
        },
        {
            "bufferView" : 1,
            "componentType" : 5126,
            "count" : 35434,
            "type" : "VEC3"
        },
        {
            "bufferView" : 2,
            "componentType" : 5126,
            "count" : 35434,
            "type" : "VEC2"
        },
        {
            "bufferView" : 3,
            "componentType" : 5123,
            "count" : 39690,
            "type" : "SCALAR"
        },
        {
            "bufferView" : 4,
            "componentType" : 5126,
            "count" : 664,
            "max" : [
                1.0000004768371582,
                4.646265506744385,
                1
            ],
            "min" : [
                -1,
                -4.64626407623291,
                -1.0000003576278687
            ],
            "type" : "VEC3"
        },
        {
            "bufferView" : 5,
            "componentType" : 5126,
            "count" : 664,
            "type" : "VEC3"
        },
        {
            "bufferView" : 6,
            "componentType" : 5126,
            "count" : 664,
            "type" : "VEC2"
        },
        {
            "bufferView" : 7,
            "componentType" : 5123,
            "count" : 1164,
            "type" : "SCALAR"
        },
        {
            "bufferView" : 8,
            "componentType" : 5126,
            "count" : 664,
            "max" : [
                1.0000004768371582,
                4.646265506744385,
                1
            ],
            "min" : [
                -1,
                -4.64626407623291,
                -1.0000003576278687
            ],
            "type" : "VEC3"
        },
        {
            "bufferView" : 9,
            "componentType" : 5126,
            "count" : 664,
            "type" : "VEC3"
        },
        {
            "bufferView" : 10,
            "componentType" : 5126,
            "count" : 664,
            "type" : "VEC2"
        },
        {
            "bufferView" : 11,
            "componentType" : 5126,
            "count" : 664,
            "max" : [
                1.0000004768371582,
                4.646265506744385,
                1
            ],
            "min" : [
                -1,
                -4.64626407623291,
                -1.0000003576278687
            ],
            "type" : "VEC3"
        },
        {
            "bufferView" : 12,
            "componentType" : 5126,
            "count" : 664,
            "type" : "VEC3"
        },
        {
            "bufferView" : 13,
            "componentType" : 5126,
            "count" : 664,
            "type" : "VEC2"
        },
        {
            "bufferView" : 14,
            "componentType" : 5126,
            "count" : 664,
            "max" : [
                1.0000004768371582,
                4.646265506744385,
                1
            ],
            "min" : [
                -1,
                -4.64626407623291,
                -1.0000003576278687
            ],
            "type" : "VEC3"
        },
        {
            "bufferView" : 15,
            "componentType" : 5126,
            "count" : 664,
            "type" : "VEC3"
        },
        {
            "bufferView" : 16,
            "componentType" : 5126,
            "count" : 664,
            "type" : "VEC2"
        },
        {
            "bufferView" : 17,
            "componentType" : 5126,
            "count" : 664,
            "max" : [
                1.0000004768371582,
                4.646265506744385,
                1
            ],
            "min" : [
                -1,
                -4.64626407623291,
                -1.0000003576278687
            ],
            "type" : "VEC3"
        },
        {
            "bufferView" : 18,
            "componentType" : 5126,
            "count" : 664,
            "type" : "VEC3"
        },
        {
            "bufferView" : 19,
            "componentType" : 5126,
            "count" : 664,
            "type" : "VEC2"
        },
        {
            "bufferView" : 20,
            "componentType" : 5126,
            "count" : 664,
            "max" : [
                1.0000004768371582,
                4.646265506744385,
                1
            ],
            "min" : [
                -1,
                -4.64626407623291,
                -1.0000003576278687
            ],
            "type" : "VEC3"
        },
        {
            "bufferView" : 21,
            "componentType" : 5126,
            "count" : 664,
            "type" : "VEC3"
        },
        {
            "bufferView" : 22,
            "componentType" : 5126,
            "count" : 664,
            "type" : "VEC2"
        },
        {
            "bufferView" : 23,
            "componentType" : 5126,
            "count" : 11,
            "max" : [
                0.4166666666666667
            ],
            "min" : [
                0
            ],
            "type" : "SCALAR"
        },
        {
            "bufferView" : 24,
            "componentType" : 5126,
            "count" : 11,
            "type" : "VEC4"
        },
        {
            "bufferView" : 25,
            "componentType" : 5126,
            "count" : 11,
            "type" : "VEC4"
        },
        {
            "bufferView" : 26,
            "componentType" : 5126,
            "count" : 11,
            "type" : "VEC4"
        },
        {
            "bufferView" : 27,
            "componentType" : 5126,
            "count" : 11,
            "type" : "VEC4"
        },
        {
            "bufferView" : 28,
            "componentType" : 5126,
            "count" : 11,
            "type" : "VEC4"
        },
        {
            "bufferView" : 29,
            "componentType" : 5126,
            "count" : 11,
            "type" : "VEC4"
        }
    ],
    "bufferViews" : [
        {
            "buffer" : 0,
            "byteLength" : 425208,
            "byteOffset" : 0
        },
        {
            "buffer" : 0,
            "byteLength" : 425208,
            "byteOffset" : 425208
        },
        {
            "buffer" : 0,
            "byteLength" : 283472,
            "byteOffset" : 850416
        },
        {
            "buffer" : 0,
            "byteLength" : 79380,
            "byteOffset" : 1133888
        },
        {
            "buffer" : 0,
            "byteLength" : 7968,
            "byteOffset" : 1213268
        },
        {
            "buffer" : 0,
            "byteLength" : 7968,
            "byteOffset" : 1221236
        },
        {
            "buffer" : 0,
            "byteLength" : 5312,
            "byteOffset" : 1229204
        },
        {
            "buffer" : 0,
            "byteLength" : 2328,
            "byteOffset" : 1234516
        },
        {
            "buffer" : 0,
            "byteLength" : 7968,
            "byteOffset" : 1236844
        },
        {
            "buffer" : 0,
            "byteLength" : 7968,
            "byteOffset" : 1244812
        },
        {
            "buffer" : 0,
            "byteLength" : 5312,
            "byteOffset" : 1252780
        },
        {
            "buffer" : 0,
            "byteLength" : 7968,
            "byteOffset" : 1258092
        },
        {
            "buffer" : 0,
            "byteLength" : 7968,
            "byteOffset" : 1266060
        },
        {
            "buffer" : 0,
            "byteLength" : 5312,
            "byteOffset" : 1274028
        },
        {
            "buffer" : 0,
            "byteLength" : 7968,
            "byteOffset" : 1279340
        },
        {
            "buffer" : 0,
            "byteLength" : 7968,
            "byteOffset" : 1287308
        },
        {
            "buffer" : 0,
            "byteLength" : 5312,
            "byteOffset" : 1295276
        },
        {
            "buffer" : 0,
            "byteLength" : 7968,
            "byteOffset" : 1300588
        },
        {
            "buffer" : 0,
            "byteLength" : 7968,
            "byteOffset" : 1308556
        },
        {
            "buffer" : 0,
            "byteLength" : 5312,
            "byteOffset" : 1316524
        },
        {
            "buffer" : 0,
            "byteLength" : 7968,
            "byteOffset" : 1321836
        },
        {
            "buffer" : 0,
            "byteLength" : 7968,
            "byteOffset" : 1329804
        },
        {
            "buffer" : 0,
            "byteLength" : 5312,
            "byteOffset" : 1337772
        },
        {
            "buffer" : 0,
            "byteLength" : 44,
            "byteOffset" : 1343084
        },
        {
            "buffer" : 0,
            "byteLength" : 176,
            "byteOffset" : 1343128
        },
        {
            "buffer" : 0,
            "byteLength" : 176,
            "byteOffset" : 1343304
        },
        {
            "buffer" : 0,
            "byteLength" : 176,
            "byteOffset" : 1343480
        },
        {
            "buffer" : 0,
            "byteLength" : 176,
            "byteOffset" : 1343656
        },
        {
            "buffer" : 0,
            "byteLength" : 176,
            "byteOffset" : 1343832
        },
        {
            "buffer" : 0,
            "byteLength" : 176,
            "byteOffset" : 1344008
        }
    ],
    "buffers" : [
        {
            "byteLength" : 1344184,
            "uri" : "data:application/octet-stream;base64,"
        }
    ]
}
